<?xml version="1.0" encoding="UTF-8" standalone="no"?>
<!-- Generator: Gravit.io -->
<svg xmlns="http://www.w3.org/2000/svg" xmlns:xlink="http://www.w3.org/1999/xlink" style="isolation:isolate" viewBox="0 0 512 512" width="512pt" height="512pt"><defs><clipPath id="_clipPath_DMpPfbYSDttz7wEHQluE6P68szbOzEiO"><rect width="512" height="512"/></clipPath></defs><g clip-path="url(#_clipPath_DMpPfbYSDttz7wEHQluE6P68szbOzEiO)"><g><circle vector-effect="non-scaling-stroke" cx="256" cy="256" r="256" fill="rgb(246,200,99)"/></g><g><path d=" M 207.268 290.828 C 235.324 318.884 266.632 333.256 277.036 322.848 L 290.172 309.712 C 294.979 304.904 301.499 302.203 308.298 302.203 C 315.097 302.203 321.617 304.904 326.424 309.712 L 355.424 338.712 C 362.155 345.442 365.936 354.57 365.936 364.088 C 365.936 373.606 362.155 382.734 355.424 389.464 L 335.024 409.864 C 309.752 435.136 234.02 400.38 165.868 332.228 C 131.808 298.136 106.08 262.168 92.032 231.556 C 77.984 200.944 75.6 175.696 88.248 163.056 L 108.648 142.656 C 115.378 135.925 124.506 132.144 134.024 132.144 C 143.542 132.144 152.67 135.925 159.4 142.656 L 188.4 171.656 C 193.208 176.463 195.909 182.983 195.909 189.782 C 195.909 196.581 193.208 203.101 188.4 207.908 L 175.264 221.044 C 164.844 231.464 179.2 262.768 207.268 290.828 L 207.268 290.828 Z " fill="rgb(87,91,109)"/><g><path d=" M 285.6 170.02 C 285.6 174.94 282.636 179.375 278.091 181.258 C 273.546 183.141 268.314 182.1 264.835 178.621 C 261.356 175.142 260.315 169.91 262.198 165.365 C 264.081 160.82 268.516 157.856 273.436 157.856 C 276.663 157.854 279.758 159.135 282.04 161.416 C 284.321 163.698 285.602 166.793 285.6 170.02 Z " fill="rgb(87,91,109)"/><path d=" M 337.932 170.02 C 337.932 174.94 334.968 179.375 330.423 181.258 C 325.878 183.141 320.646 182.1 317.167 178.621 C 313.688 175.142 312.647 169.91 314.53 165.365 C 316.413 160.82 320.848 157.856 325.768 157.856 C 328.995 157.854 332.09 159.135 334.372 161.416 C 336.653 163.698 337.934 166.793 337.932 170.02 Z " fill="rgb(87,91,109)"/><path d=" M 390.26 170.02 C 390.26 174.94 387.296 179.375 382.751 181.258 C 378.206 183.141 372.974 182.1 369.495 178.621 C 366.016 175.142 364.975 169.91 366.858 165.365 C 368.741 160.82 373.176 157.856 378.096 157.856 C 381.323 157.854 384.418 159.135 386.7 161.416 C 388.981 163.698 390.262 166.793 390.26 170.02 Z " fill="rgb(87,91,109)"/></g></g></g></svg>